<?xml version="1.0" encoding="utf-8"?>
<!-- Generator: Adobe Illustrator 27.3.1, SVG Export Plug-In . SVG Version: 6.00 Build 0)  -->
<svg version="1.1" id="Layer_1" xmlns="http://www.w3.org/2000/svg" xmlns:xlink="http://www.w3.org/1999/xlink" x="0px" y="0px"
	 viewBox="0 0 327.7 197.9" style="enable-background:new 0 0 327.7 197.9;" xml:space="preserve">
<style type="text/css">
	.st0{fill:#199DD0;}
	.st1{fill:#FFFFFF;}
	.st2{fill:#199ED1;}
	.st3{fill:none;stroke:#FFFFFF;stroke-width:4.43;stroke-miterlimit:10;}
	.st4{fill:none;stroke:#FFFFFF;stroke-width:4.98;stroke-miterlimit:10;}
</style>
<g>
	<polygon class="st0" points="308.3,52.9 308.3,145 163.9,191 19.4,145 19.4,52.9 163.9,6.9 	"/>
	<polygon class="st1" points="294.8,59.7 294.8,138.2 163.9,177.5 33,138.2 33,59.7 163.9,20.4 	"/>
	<rect x="162.2" y="12" class="st2" width="3.2" height="176.3"/>
	<g>
		<polygon class="st2" points="157.1,170.9 38,135.1 38,62.7 157.1,27 		"/>
		<polygon class="st2" points="170.6,26.5 289.7,62.7 289.7,135.1 170.6,170.8 		"/>
	</g>
	<path class="st1" d="M84.4,104.1c4.2,0,13.3-3.9,44.4-38.1c16.9-18.5,32.2-37.3,32.4-37.4l-3.6-2.9c-0.1,0.2-15.5,18.8-32.2,37.3
		c-30.1,33-38.7,36.6-41,36.6c-2.9,0-10.4-2.4-28-18.2c-10.2-9.2-18.9-18.6-19-18.7L34,65.8C37.7,69.7,70,104.1,84.4,104.1
		L84.4,104.1z"/>
	<polygon class="st1" points="177.4,34.7 283,66.8 283,131 177.4,162.6 	"/>
	<polygon class="st2" points="184.1,42.9 276.2,70.9 276.2,126.8 184.1,154.5 	"/>
	<g>
		<line class="st3" x1="262.1" y1="61.7" x2="262.1" y2="135.9"/>
		<line class="st3" x1="237.5" y1="54.6" x2="237.5" y2="143.1"/>
		<line class="st4" x1="213" y1="46.6" x2="213" y2="150.4"/>
	</g>
</g>
</svg>
